<svg width="32" height="33" viewBox="0 0 32 33" fill="none" xmlns="http://www.w3.org/2000/svg">
<path d="M25.472 8.61211C25.6085 8.47284 25.7714 8.3622 25.9512 8.28667C26.131 8.21114 26.324 8.17224 26.519 8.17224C26.714 8.17224 26.907 8.21114 27.0868 8.28667C27.2666 8.3622 27.4295 8.47284 27.566 8.61211C28.138 9.19011 28.146 10.1241 27.586 10.7121L15.76 24.6921C15.6257 24.8396 15.4628 24.958 15.2812 25.0404C15.0995 25.1227 14.903 25.167 14.7036 25.1708C14.5042 25.1745 14.3062 25.1376 14.1216 25.0621C13.937 24.9867 13.7697 24.8744 13.63 24.7321L6.43401 17.4401C6.15648 17.1571 6.00102 16.7765 6.00102 16.3801C6.00102 15.9837 6.15648 15.6031 6.43401 15.3201C6.5705 15.1808 6.7334 15.0702 6.91318 14.9947C7.09296 14.9191 7.286 14.8802 7.48101 14.8802C7.67601 14.8802 7.86905 14.9191 8.04883 14.9947C8.22861 15.0702 8.39151 15.1808 8.52801 15.3201L14.632 21.5061L25.432 8.65611C25.4444 8.64065 25.4578 8.62596 25.472 8.61211Z" fill="#19A89D"/>
</svg>
