<svg width="312" height="32" viewBox="0 0 312 32" fill="none" xmlns="http://www.w3.org/2000/svg">
<g clip-path="url(#clip0_1_321)">
<path d="M31.3334 8.67606C31.1522 8.0297 30.7992 7.44452 30.312 6.98273C29.8111 6.50673 29.1971 6.16624 28.528 5.99339C26.024 5.33339 15.992 5.33339 15.992 5.33339C11.8098 5.28581 7.6286 5.49509 3.47203 5.96006C2.80295 6.14568 2.19011 6.49378 1.68803 6.97339C1.1947 7.44806 0.837363 8.03339 0.650696 8.67473C0.202287 11.0904 -0.0155812 13.5432 2.94539e-05 16.0001C-0.0159705 18.4547 0.201363 20.9067 0.650696 23.3254C0.833363 23.9641 1.18936 24.5467 1.68403 25.0174C2.1787 25.4881 2.7947 25.8281 3.47203 26.0081C6.00936 26.6667 15.992 26.6667 15.992 26.6667C20.1796 26.7144 24.3661 26.5051 28.528 26.0401C29.1971 25.8672 29.8111 25.5267 30.312 25.0507C30.799 24.589 31.1516 24.0038 31.332 23.3574C31.7921 20.9427 32.0159 18.4888 32 16.0307C32.0346 13.5622 31.8112 11.0968 31.3334 8.67473V8.67606ZM12.8027 20.5654V11.4361L21.1494 16.0014L12.8027 20.5654Z" fill="#E9E9E9"/>
</g>
<path d="M87.524 6.58269C86.4107 7.07602 85.2147 7.40935 83.9573 7.56002C85.2547 6.78374 86.2253 5.56198 86.688 4.12269C85.4691 4.84667 84.1351 5.35628 82.744 5.62935C81.8085 4.63051 80.5694 3.96846 79.2191 3.74599C77.8688 3.52352 76.4828 3.75308 75.2763 4.39902C74.0698 5.04497 73.1104 6.07117 72.5469 7.31829C71.9834 8.56542 71.8474 9.96369 72.16 11.296C69.6902 11.172 67.2742 10.5301 65.0686 9.41189C62.863 8.2937 60.9171 6.72424 59.3573 4.80535C58.824 5.72535 58.5173 6.79202 58.5173 7.92802C58.5167 8.95068 58.7686 9.95768 59.2505 10.8597C59.7324 11.7617 60.4295 12.5307 61.28 13.0987C60.2937 13.0673 59.3292 12.8008 58.4667 12.3214V12.4014C58.4666 13.8357 58.9627 15.2259 59.8709 16.336C60.7791 17.4462 62.0434 18.2079 63.4493 18.492C62.5344 18.7396 61.5751 18.7761 60.644 18.5987C61.0407 19.8328 61.8133 20.9121 62.8538 21.6853C63.8943 22.4585 65.1506 22.8869 66.4467 22.9107C64.2464 24.6379 61.5292 25.5748 58.732 25.5707C58.2365 25.5708 57.7414 25.5419 57.2493 25.484C60.0886 27.3096 63.3938 28.2784 66.7693 28.2747C78.196 28.2747 84.4427 18.8107 84.4427 10.6027C84.4427 10.336 84.436 10.0667 84.424 9.80002C85.6391 8.92132 86.6879 7.83322 87.5213 6.58669L87.524 6.58269Z" fill="#E9E9E9"/>
<path fill-rule="evenodd" clip-rule="evenodd" d="M124.572 11.9586H129.524V14.4253C130.237 13.0066 132.067 11.732 134.815 11.732C140.083 11.732 141.333 14.556 141.333 19.7373V29.3333H136V20.9173C136 17.9666 135.287 16.3026 133.471 16.3026C130.952 16.3026 129.905 18.096 129.905 20.916V29.3333H124.572V11.9586ZM115.427 29.1066H120.76V11.732H115.427V29.1066ZM121.524 6.06663C121.524 6.51366 121.436 6.95627 121.263 7.36874C121.091 7.78121 120.838 8.15531 120.52 8.46929C119.875 9.11012 119.002 9.46883 118.093 9.46663C117.186 9.46602 116.315 9.10822 115.669 8.47063C115.352 8.15558 115.101 7.78106 114.928 7.36853C114.756 6.95601 114.667 6.51359 114.667 6.06663C114.667 5.16396 115.027 4.29996 115.671 3.66263C116.316 3.02417 117.187 2.66623 118.095 2.66663C119.004 2.66663 119.876 3.02529 120.52 3.66263C121.163 4.29996 121.524 5.16396 121.524 6.06663Z" fill="#E9E9E9"/>
<path d="M184 11.8344C181.706 11.8344 179.834 13.7062 179.834 16C179.834 18.2937 181.706 20.1656 184 20.1656C186.294 20.1656 188.166 18.2937 188.166 16C188.166 13.7062 186.294 11.8344 184 11.8344ZM196.494 16C196.494 14.275 196.509 12.5656 196.413 10.8437C196.316 8.84373 195.859 7.06873 194.397 5.60623C192.931 4.1406 191.159 3.68748 189.159 3.5906C187.434 3.49373 185.725 3.50935 184.003 3.50935C182.278 3.50935 180.569 3.49373 178.847 3.5906C176.847 3.68748 175.072 4.14373 173.609 5.60623C172.144 7.07185 171.691 8.84373 171.594 10.8437C171.497 12.5687 171.513 14.2781 171.513 16C171.513 17.7219 171.497 19.4344 171.594 21.1562C171.691 23.1562 172.147 24.9312 173.609 26.3937C175.075 27.8594 176.847 28.3125 178.847 28.4094C180.572 28.5062 182.281 28.4906 184.003 28.4906C185.728 28.4906 187.438 28.5062 189.159 28.4094C191.159 28.3125 192.934 27.8562 194.397 26.3937C195.863 24.9281 196.316 23.1562 196.413 21.1562C196.513 19.4344 196.494 17.725 196.494 16ZM184 22.4094C180.453 22.4094 177.591 19.5469 177.591 16C177.591 12.4531 180.453 9.5906 184 9.5906C187.547 9.5906 190.409 12.4531 190.409 16C190.409 19.5469 187.547 22.4094 184 22.4094ZM190.672 10.825C189.844 10.825 189.175 10.1562 189.175 9.3281C189.175 8.49998 189.844 7.83123 190.672 7.83123C191.5 7.83123 192.169 8.49998 192.169 9.3281C192.169 9.52474 192.13 9.7195 192.055 9.90122C191.98 10.0829 191.87 10.2481 191.731 10.3871C191.592 10.5261 191.427 10.6364 191.245 10.7115C191.063 10.7867 190.869 10.8252 190.672 10.825Z" fill="#E9E9E9"/>
<path d="M251.5 3.5H228.5C227.947 3.5 227.5 3.94687 227.5 4.5V27.5C227.5 28.0531 227.947 28.5 228.5 28.5H251.5C252.053 28.5 252.5 28.0531 252.5 27.5V4.5C252.5 3.94687 252.053 3.5 251.5 3.5ZM248.612 10.7969H246.616C245.05 10.7969 244.747 11.5406 244.747 12.6344V15.0437H248.484L247.997 18.8156H244.747V28.5H240.85V18.8188H237.591V15.0437H240.85V12.2625C240.85 9.03437 242.822 7.275 245.703 7.275C247.084 7.275 248.269 7.37813 248.616 7.425V10.7969H248.612Z" fill="#E9E9E9"/>
<path d="M282.667 8.00004C282.667 7.2928 282.948 6.61452 283.448 6.11442C283.948 5.61433 284.626 5.33337 285.333 5.33337H306.667C307.374 5.33337 308.052 5.61433 308.552 6.11442C309.052 6.61452 309.333 7.2928 309.333 8.00004V24C309.333 24.7073 309.052 25.3856 308.552 25.8857C308.052 26.3858 307.374 26.6667 306.667 26.6667H285.333C284.626 26.6667 283.948 26.3858 283.448 25.8857C282.948 25.3856 282.667 24.7073 282.667 24V8.00004Z" fill="#E9E9E9" stroke="#21272C" stroke-width="2" stroke-linecap="round" stroke-linejoin="round"/>
<path d="M282.667 10.6666L292.668 18.668C293.614 19.4246 294.789 19.8369 296 19.8369C297.211 19.8369 298.386 19.4246 299.332 18.668L309.333 10.6666" fill="#E9E9E9"/>
<path d="M282.667 10.6666L292.668 18.668C293.614 19.4246 294.789 19.8369 296 19.8369C297.211 19.8369 298.386 19.4246 299.332 18.668L309.333 10.6666" stroke="#21272C" stroke-width="2" stroke-linejoin="round"/>
<defs>
<clipPath id="clip0_1_321">
<rect width="32" height="32" fill="white"/>
</clipPath>
</defs>
</svg>
