<svg width="97" height="97" viewBox="0 0 97 97" fill="none" xmlns="http://www.w3.org/2000/svg">
<path d="M56.415 16.5281C56.548 16.5661 56.676 16.5821 56.81 16.5821C57.397 16.5821 57.936 16.2031 58.118 15.6101L59.704 10.3191C59.923 9.59813 59.512 8.84013 58.785 8.62113C58.065 8.40713 57.301 8.81313 57.082 9.53913L55.496 14.8251C55.283 15.5461 55.694 16.3091 56.415 16.5281Z" fill="#19A89D"/>
<path d="M65.428 18.7121C65.63 18.8241 65.855 18.8781 66.074 18.8781C66.56 18.8781 67.029 18.6211 67.28 18.1681L69.923 13.2931C70.286 12.6251 70.041 11.7981 69.373 11.4351C68.711 11.0771 67.884 11.3221 67.521 11.9851L64.878 16.8591C64.515 17.5211 64.76 18.3541 65.428 18.7121Z" fill="#19A89D"/>
<path d="M75.658 23.1711C76.048 23.1711 76.437 23.0051 76.704 22.6851L80.298 18.4181C80.789 17.8421 80.714 16.9771 80.138 16.4911C79.556 16.0051 78.696 16.0801 78.21 16.6561L74.617 20.9231C74.131 21.4991 74.206 22.3641 74.782 22.8501C75.039 23.0641 75.348 23.1711 75.658 23.1711Z" fill="#19A89D"/>
<path d="M83.998 29.9621C84.308 29.9621 84.617 29.8551 84.874 29.6421L89.108 26.0861C89.684 25.6001 89.759 24.7401 89.273 24.1581C88.787 23.5821 87.928 23.5121 87.351 23.9931L83.117 27.5491C82.54 28.0351 82.466 28.9001 82.952 29.4761C83.218 29.7971 83.608 29.9621 83.998 29.9621Z" fill="#19A89D"/>
<path d="M20.096 22.6851C20.363 23.0051 20.753 23.1711 21.143 23.1711C21.452 23.1711 21.762 23.0641 22.018 22.8501C22.595 22.3641 22.67 21.4991 22.184 20.9231L18.59 16.6561C18.104 16.0801 17.239 16.0051 16.663 16.4911C16.086 16.9771 16.011 17.8421 16.503 18.4181L20.096 22.6851Z" fill="#19A89D"/>
<path d="M29.52 18.1681C29.771 18.6211 30.241 18.8781 30.727 18.8781C30.946 18.8781 31.17 18.8241 31.373 18.7121C32.04 18.3541 32.286 17.5211 31.923 16.8591L29.28 11.9851C28.917 11.3221 28.089 11.0771 27.427 11.4351C26.76 11.7981 26.514 12.6251 26.877 13.2931L29.52 18.1681Z" fill="#19A89D"/>
<path d="M11.969 29.6791C12.215 29.8721 12.509 29.9621 12.802 29.9621C13.214 29.9621 13.614 29.7811 13.886 29.4341C14.346 28.8361 14.239 27.9761 13.641 27.5111L9.59898 24.3931C9.00098 23.9291 8.14098 24.0411 7.67698 24.6391C7.21698 25.2371 7.32998 26.0911 7.92198 26.5501L11.969 29.6791Z" fill="#19A89D"/>
<path d="M38.683 15.6101C38.864 16.2031 39.403 16.5821 39.991 16.5821C40.124 16.5821 40.252 16.5661 40.386 16.5281C41.107 16.3091 41.518 15.5461 41.304 14.8251L39.718 9.53913C39.499 8.81313 38.741 8.40713 38.015 8.62113C37.289 8.84013 36.878 9.59813 37.097 10.3191L38.683 15.6101Z" fill="#19A89D"/>
<path d="M48.4 15.9041C49.153 15.9041 49.767 15.2901 49.767 14.5371V9.06915C49.767 8.31615 49.153 7.70215 48.4 7.70215C47.647 7.70215 47.033 8.31615 47.033 9.06915V14.5371C47.033 15.2901 47.647 15.9041 48.4 15.9041Z" fill="#19A89D"/>
<path d="M29.819 58.3631C22.509 55.1001 15.846 49.8841 10.501 43.2411C13.176 39.9101 16.177 36.9411 19.418 34.3941C20.016 33.9241 20.117 33.0641 19.653 32.4721C19.183 31.8741 18.329 31.7721 17.731 32.2421C14.041 35.1361 10.656 38.5591 7.68198 42.4031C7.29798 42.8941 7.29798 43.5881 7.68198 44.0801C13.406 51.4801 20.678 57.2841 28.709 60.8611C28.89 60.9411 29.077 60.9791 29.264 60.9791C29.787 60.9791 30.284 60.6801 30.513 60.1671C30.818 59.4781 30.508 58.6721 29.819 58.3631Z" fill="#19A89D"/>
<path d="M44.887 50.6421C42.041 49.2861 40.199 46.3811 40.199 43.2411C40.199 38.7191 43.878 35.0401 48.4 35.0401C48.641 35.0401 48.875 35.0511 49.116 35.0721C48.651 35.8781 48.4 36.8021 48.4 37.7741C48.4 40.7911 50.851 43.2411 53.868 43.2411C54.834 43.2411 55.763 42.9901 56.57 42.5261C56.591 42.7661 56.602 43.0011 56.602 43.2411C56.602 46.3811 54.759 49.2861 51.914 50.6421C51.438 50.8711 51.134 51.3471 51.134 51.8751V62.3781H45.666V51.8751C45.666 51.3471 45.362 50.8711 44.887 50.6421ZM63.436 66.4781C63.436 67.2311 62.822 67.8451 62.069 67.8451H34.731C33.979 67.8451 33.364 67.2311 33.364 66.4781C33.364 65.7261 33.979 65.1121 34.731 65.1121H62.069C62.822 65.1121 63.436 65.7261 63.436 66.4781ZM48.4 86.9821C42.372 86.9821 37.465 82.0751 37.465 76.0471H59.335C59.335 82.0751 54.428 86.9821 48.4 86.9821ZM89.119 44.0801C89.503 43.5881 89.503 42.8941 89.119 42.4031C78.771 29.0391 63.927 21.3711 48.4 21.3711C39.158 21.3711 30.027 24.0841 21.992 29.2151C21.356 29.6211 21.169 30.4701 21.575 31.1051C21.981 31.7401 22.83 31.9271 23.465 31.5211C26.979 29.2731 30.721 27.5441 34.587 26.3051C29.675 30.3151 26.53 36.4181 26.53 43.2411C26.53 49.9321 29.509 56.1041 34.731 60.2851V62.3781C32.467 62.3781 30.631 64.2151 30.631 66.4781C30.631 68.7421 32.467 70.5791 34.731 70.5791H62.069C62.822 70.5791 63.436 71.1931 63.436 71.9461C63.436 72.6991 62.822 73.3131 62.069 73.3131H34.731C33.979 73.3131 33.364 73.9271 33.364 74.6801C33.364 75.4331 33.979 76.0471 34.731 76.0471C34.731 83.5811 40.861 89.7161 48.4 89.7161C55.939 89.7161 62.069 83.5811 62.069 76.0471C64.333 76.0471 66.17 74.2101 66.17 71.9461C66.17 70.8891 65.759 69.9381 65.102 69.2121C65.759 68.4861 66.17 67.5361 66.17 66.4781C66.17 64.2151 64.333 62.3781 62.069 62.3781V60.2851C67.291 56.1041 70.27 49.9321 70.27 43.2411C70.27 41.6981 70.1 40.1281 69.758 38.5751C69.598 37.8331 68.872 37.3631 68.135 37.5281C67.398 37.6881 66.928 38.4151 67.088 39.1571C67.387 40.5181 67.537 41.8961 67.537 43.2411C67.537 49.2911 64.744 54.8651 59.88 58.5231C59.538 58.7791 59.335 59.1851 59.335 59.6171V62.3781H53.868V52.6971C57.216 50.7591 59.335 47.1341 59.335 43.2411C59.335 41.9491 59.1 40.6621 58.636 39.4241C58.454 38.9321 58.011 38.5911 57.488 38.5431C56.959 38.4891 56.463 38.7461 56.19 39.1891C55.689 40.0161 54.818 40.5081 53.868 40.5081C52.362 40.5081 51.134 39.2801 51.134 37.7741C51.134 36.8231 51.625 35.9531 52.453 35.4511C52.896 35.1791 53.147 34.6721 53.099 34.1541C53.051 33.6301 52.709 33.1871 52.218 33.0061C50.979 32.5411 49.692 32.3061 48.4 32.3061C42.372 32.3061 37.465 37.2131 37.465 43.2411C37.465 47.1341 39.585 50.7591 42.933 52.6971V62.3781H37.465V59.6171C37.465 59.1851 37.262 58.7791 36.921 58.5231C32.056 54.8651 29.264 49.2911 29.264 43.2411C29.264 32.6911 37.85 24.1051 48.4 24.1051C55.528 24.1051 62.021 28.0351 65.342 34.3621C65.695 35.0291 66.522 35.2861 67.19 34.9331C67.857 34.5811 68.113 33.7591 67.761 33.0911C66.367 30.4321 64.477 28.1471 62.245 26.3151C71.365 29.2631 79.727 35.0721 86.299 43.2411C80.955 49.8841 74.291 55.1001 66.981 58.3631C66.293 58.6721 65.983 59.4781 66.287 60.1671C66.517 60.6801 67.013 60.9791 67.537 60.9791C67.724 60.9791 67.91 60.9411 68.092 60.8611C76.122 57.2841 83.389 51.4801 89.119 44.0801Z" fill="#19A89D"/>
<path d="M76.704 61.8391C76.219 61.2621 75.354 61.1921 74.782 61.6781C74.206 62.1641 74.131 63.0241 74.617 63.6061L78.21 67.8721C78.482 68.1921 78.867 68.3581 79.257 68.3581C79.566 68.3581 79.881 68.2511 80.138 68.0381C80.714 67.5461 80.789 66.6871 80.298 66.1101L76.704 61.8391Z" fill="#19A89D"/>
<path d="M84.874 54.8871C84.297 54.4011 83.437 54.4751 82.952 55.0521C82.466 55.6341 82.54 56.4941 83.117 56.9801L87.351 60.5361C87.607 60.7491 87.917 60.8561 88.227 60.8561C88.617 60.8561 89.006 60.6911 89.273 60.3651C89.759 59.7881 89.684 58.9231 89.108 58.4371L84.874 54.8871Z" fill="#19A89D"/>
<path d="M20.096 61.8391L16.503 66.1101C16.011 66.6871 16.086 67.5461 16.663 68.0381C16.919 68.2511 17.234 68.3581 17.544 68.3581C17.934 68.3581 18.318 68.1921 18.59 67.8721L22.184 63.6061C22.67 63.0241 22.595 62.1641 22.018 61.6781C21.447 61.1921 20.582 61.2671 20.096 61.8391Z" fill="#19A89D"/>
<path d="M11.969 54.8491L7.92198 57.9731C7.32998 58.4321 7.21698 59.2921 7.67698 59.8901C7.94898 60.2371 8.35498 60.4241 8.75998 60.4241C9.05398 60.4241 9.34798 60.3271 9.59898 60.1351L13.641 57.0171C14.239 56.5531 14.346 55.6931 13.886 55.0951C13.422 54.4971 12.562 54.3901 11.969 54.8491Z" fill="#19A89D"/>
</svg>
